<?xml version="1.0" encoding="UTF-8" standalone="no"?>
<!DOCTYPE svg PUBLIC "-//W3C//DTD SVG 1.1//EN"
 "http://www.w3.org/Graphics/SVG/1.1/DTD/svg11.dtd">
<!-- Generated by graphviz version 2.42.4 (0)
 -->
<!-- Title: AgenticAIArchitectureERD Pages: 1 -->
<svg width="2651pt" height="774pt"
 viewBox="0.00 0.00 2651.00 774.00" xmlns="http://www.w3.org/2000/svg" xmlns:xlink="http://www.w3.org/1999/xlink">
<g id="graph0" class="graph" transform="scale(1 1) rotate(0) translate(4 770)">
<title>AgenticAIArchitectureERD</title>
<polygon fill="white" stroke="transparent" points="-4,4 -4,-770 2647,-770 2647,4 -4,4"/>
<text text-anchor="middle" x="1321.5" y="-750.8" font-family="Helvetica,sans-Serif" font-size="14.00">Agentic AI Architecture — Entity Relationship Diagram v2.1.0</text>
<!-- frontends -->
<g id="node1" class="node">
<title>frontends</title>
<polygon fill="#4a6fa5" stroke="black" points="0,-539.5 0,-580.5 218,-580.5 218,-539.5 0,-539.5"/>
<text text-anchor="middle" x="32.5" y="-557.5" font-family="Helvetica,sans-Serif" font-size="10.00" fill="white">Frontends</text>
<polyline fill="none" stroke="black" points="65,-539.5 65,-580.5 "/>
<text text-anchor="start" x="73" y="-568.5" font-family="Helvetica,sans-Serif" font-size="10.00" fill="white">• Frontends</text>
<text text-anchor="start" x="73" y="-557.5" font-family="Helvetica,sans-Serif" font-size="10.00" fill="white"> (Chatbots, Slack, Telegram,</text>
<text text-anchor="start" x="73" y="-546.5" font-family="Helvetica,sans-Serif" font-size="10.00" fill="white"> Web UIs, Dashboards)</text>
</g>
<!-- prompts -->
<g id="node2" class="node">
<title>prompts</title>
<polygon fill="#4a6fa5" stroke="black" points="654,-539.5 654,-580.5 812,-580.5 812,-539.5 654,-539.5"/>
<text text-anchor="middle" x="682.5" y="-557.5" font-family="Helvetica,sans-Serif" font-size="10.00" fill="white">Prompts</text>
<polyline fill="none" stroke="black" points="711,-539.5 711,-580.5 "/>
<text text-anchor="start" x="719" y="-568.5" font-family="Helvetica,sans-Serif" font-size="10.00" fill="white">• User Prompt</text>
<text text-anchor="start" x="719" y="-557.5" font-family="Helvetica,sans-Serif" font-size="10.00" fill="white">• System Prompt</text>
<text text-anchor="start" x="719" y="-546.5" font-family="Helvetica,sans-Serif" font-size="10.00" fill="white">• Vendor Prompt</text>
</g>
<!-- frontends&#45;&gt;prompts -->
<g id="edge1" class="edge">
<title>frontends&#45;&gt;prompts</title>
<path fill="none" stroke="#4a6fa5" stroke-dasharray="5,2" d="M210.61,-580.51C251.77,-587.92 299.98,-595.36 344,-599 462.38,-608.8 493.92,-607.04 611,-587 621.64,-585.18 632.75,-583.04 643.75,-580.77"/>
<polygon fill="#4a6fa5" stroke="#4a6fa5" points="644.73,-584.14 653.79,-578.65 643.29,-577.29 644.73,-584.14"/>
<text text-anchor="middle" x="427.5" y="-606.6" font-family="Helvetica,sans-Serif" font-size="8.00">INPUT</text>
</g>
<!-- observability -->
<g id="node13" class="node">
<title>observability</title>
<polygon fill="#065f46" stroke="black" points="347.5,-539.5 347.5,-580.5 507.5,-580.5 507.5,-539.5 347.5,-539.5"/>
<text text-anchor="middle" x="388.5" y="-557.5" font-family="Helvetica,sans-Serif" font-size="10.00" fill="white">Observability</text>
<polyline fill="none" stroke="black" points="429.5,-539.5 429.5,-580.5 "/>
<text text-anchor="start" x="437.5" y="-568.5" font-family="Helvetica,sans-Serif" font-size="10.00" fill="white">• Eval</text>
<text text-anchor="start" x="437.5" y="-557.5" font-family="Helvetica,sans-Serif" font-size="10.00" fill="white">• Logging</text>
<text text-anchor="start" x="437.5" y="-546.5" font-family="Helvetica,sans-Serif" font-size="10.00" fill="white">• Monitoring</text>
</g>
<!-- frontends&#45;&gt;observability -->
<g id="edge25" class="edge">
<title>frontends&#45;&gt;observability</title>
<path fill="none" stroke="#4a6fa5" stroke-dasharray="5,2" d="M218.04,-560C256.83,-560 300.12,-560 337.15,-560"/>
<polygon fill="#4a6fa5" stroke="#4a6fa5" points="337.42,-563.5 347.42,-560 337.42,-556.5 337.42,-563.5"/>
<text text-anchor="middle" x="281" y="-562.6" font-family="Helvetica,sans-Serif" font-size="8.00">telemetry</text>
</g>
<!-- models -->
<g id="node3" class="node">
<title>models</title>
<polygon fill="#8b5cf6" stroke="black" points="944,-452 944,-504 1083,-504 1083,-452 944,-452"/>
<text text-anchor="middle" x="970" y="-475.5" font-family="Helvetica,sans-Serif" font-size="10.00" fill="white">Models</text>
<polyline fill="none" stroke="black" points="996,-452 996,-504 "/>
<text text-anchor="start" x="1004" y="-492" font-family="Helvetica,sans-Serif" font-size="10.00" fill="white">• Commercial</text>
<text text-anchor="start" x="1004" y="-481" font-family="Helvetica,sans-Serif" font-size="10.00" fill="white">• Open Source</text>
<text text-anchor="start" x="1004" y="-470" font-family="Helvetica,sans-Serif" font-size="10.00" fill="white">• Fine&#45;Tuned</text>
<text text-anchor="start" x="1004" y="-459" font-family="Helvetica,sans-Serif" font-size="10.00" fill="white">• Embedding</text>
</g>
<!-- prompts&#45;&gt;models -->
<g id="edge2" class="edge">
<title>prompts&#45;&gt;models</title>
<path fill="none" stroke="#4a6fa5" d="M783.5,-539.4C805.21,-530.84 831.12,-521.23 855,-514 880.36,-506.32 908.45,-499.41 933.8,-493.74"/>
<polygon fill="#4a6fa5" stroke="#4a6fa5" points="934.72,-497.12 943.74,-491.55 933.22,-490.29 934.72,-497.12"/>
<text text-anchor="middle" x="878" y="-525.6" font-family="Helvetica,sans-Serif" font-size="8.00">assembled</text>
<text text-anchor="middle" x="878" y="-516.6" font-family="Helvetica,sans-Serif" font-size="8.00">prompts</text>
</g>
<!-- storage -->
<g id="node10" class="node">
<title>storage</title>
<polygon fill="#14b8a6" stroke="black" points="1825.5,-624.5 1825.5,-687.5 1974.5,-687.5 1974.5,-624.5 1825.5,-624.5"/>
<text text-anchor="middle" x="1852.5" y="-653.5" font-family="Helvetica,sans-Serif" font-size="10.00" fill="white">Storage</text>
<polyline fill="none" stroke="black" points="1879.5,-624.5 1879.5,-687.5 "/>
<text text-anchor="start" x="1887.5" y="-675.5" font-family="Helvetica,sans-Serif" font-size="10.00" fill="white">• Conversations</text>
<text text-anchor="start" x="1887.5" y="-664.5" font-family="Helvetica,sans-Serif" font-size="10.00" fill="white">• Outputs</text>
<text text-anchor="start" x="1887.5" y="-653.5" font-family="Helvetica,sans-Serif" font-size="10.00" fill="white">• Prompts</text>
<text text-anchor="start" x="1887.5" y="-642.5" font-family="Helvetica,sans-Serif" font-size="10.00" fill="white">• Postgres</text>
<text text-anchor="start" x="1887.5" y="-631.5" font-family="Helvetica,sans-Serif" font-size="10.00" fill="white">• Data Lakes</text>
</g>
<!-- prompts&#45;&gt;storage -->
<g id="edge27" class="edge">
<title>prompts&#45;&gt;storage</title>
<path fill="none" stroke="#4a6fa5" stroke-dasharray="5,2" d="M771.47,-580.65C823.8,-607.5 922.47,-651 1012.5,-651 1012.5,-651 1012.5,-651 1591,-651 1666.86,-651 1753.22,-652.54 1815.15,-653.9"/>
<polygon fill="#4a6fa5" stroke="#4a6fa5" points="1815.18,-657.41 1825.26,-654.13 1815.34,-650.41 1815.18,-657.41"/>
<text text-anchor="middle" x="1299" y="-662.6" font-family="Helvetica,sans-Serif" font-size="8.00">persist</text>
<text text-anchor="middle" x="1299" y="-653.6" font-family="Helvetica,sans-Serif" font-size="8.00">prompts</text>
</g>
<!-- inference -->
<g id="node4" class="node">
<title>inference</title>
<polygon fill="#6366f1" stroke="black" points="1227,-356 1227,-430 1371,-430 1371,-356 1227,-356"/>
<text text-anchor="middle" x="1258" y="-390.5" font-family="Helvetica,sans-Serif" font-size="10.00" fill="white">Inference</text>
<polyline fill="none" stroke="black" points="1289,-356 1289,-430 "/>
<text text-anchor="start" x="1297" y="-418" font-family="Helvetica,sans-Serif" font-size="10.00" fill="white">• Gateway</text>
<text text-anchor="start" x="1297" y="-407" font-family="Helvetica,sans-Serif" font-size="10.00" fill="white">• Cloud APIs</text>
<text text-anchor="start" x="1297" y="-396" font-family="Helvetica,sans-Serif" font-size="10.00" fill="white">• Self&#45;Hosted</text>
<text text-anchor="start" x="1297" y="-385" font-family="Helvetica,sans-Serif" font-size="10.00" fill="white">• On&#45;Prem</text>
<text text-anchor="start" x="1297" y="-374" font-family="Helvetica,sans-Serif" font-size="10.00" fill="white">• Edge</text>
<text text-anchor="start" x="1297" y="-363" font-family="Helvetica,sans-Serif" font-size="10.00" fill="white">• Cache</text>
</g>
<!-- models&#45;&gt;inference -->
<g id="edge3" class="edge">
<title>models&#45;&gt;inference</title>
<path fill="none" stroke="#8b5cf6" d="M1083.28,-453.82C1097.36,-449.08 1112.12,-444.26 1126,-440 1155.39,-430.99 1187.85,-421.9 1216.59,-414.14"/>
<polygon fill="#8b5cf6" stroke="#8b5cf6" points="1217.83,-417.43 1226.58,-411.46 1216.02,-410.67 1217.83,-417.43"/>
<text text-anchor="middle" x="1149" y="-451.6" font-family="Helvetica,sans-Serif" font-size="8.00">model</text>
<text text-anchor="middle" x="1149" y="-442.6" font-family="Helvetica,sans-Serif" font-size="8.00">serving</text>
</g>
<!-- context_store -->
<g id="node5" class="node">
<title>context_store</title>
<polygon fill="#2563eb" stroke="black" points="2146,-483.5 2146,-524.5 2324,-524.5 2324,-483.5 2146,-483.5"/>
<text text-anchor="middle" x="2187.5" y="-501.5" font-family="Helvetica,sans-Serif" font-size="10.00" fill="white">Context Store</text>
<polyline fill="none" stroke="black" points="2229,-483.5 2229,-524.5 "/>
<text text-anchor="start" x="2237" y="-512.5" font-family="Helvetica,sans-Serif" font-size="10.00" fill="white">• Context (RAG)</text>
<text text-anchor="start" x="2237" y="-501.5" font-family="Helvetica,sans-Serif" font-size="10.00" fill="white">• Memory</text>
<text text-anchor="start" x="2237" y="-490.5" font-family="Helvetica,sans-Serif" font-size="10.00" fill="white">• Vector Store</text>
</g>
<!-- models&#45;&gt;context_store -->
<g id="edge15" class="edge">
<title>models&#45;&gt;context_store</title>
<path fill="none" stroke="#8b5cf6" stroke-dasharray="5,2" d="M1083.08,-478.77C1215.48,-480.32 1515.56,-484.2 1768,-490 1895.06,-492.92 2041.58,-497.53 2135.88,-500.65"/>
<polygon fill="#8b5cf6" stroke="#8b5cf6" points="2135.86,-504.15 2145.97,-500.99 2136.1,-497.16 2135.86,-504.15"/>
<text text-anchor="middle" x="1590" y="-498.6" font-family="Helvetica,sans-Serif" font-size="8.00">embedding</text>
<text text-anchor="middle" x="1590" y="-489.6" font-family="Helvetica,sans-Serif" font-size="8.00">vectors</text>
</g>
<!-- agents -->
<g id="node6" class="node">
<title>agents</title>
<polygon fill="#e85d26" stroke="black" points="1519,-275 1519,-327 1661,-327 1661,-275 1519,-275"/>
<text text-anchor="middle" x="1544" y="-298.5" font-family="Helvetica,sans-Serif" font-size="10.00" fill="white">Agents</text>
<polyline fill="none" stroke="black" points="1569,-275 1569,-327 "/>
<text text-anchor="start" x="1577" y="-315" font-family="Helvetica,sans-Serif" font-size="10.00" fill="white">• Orchestration</text>
<text text-anchor="start" x="1577" y="-304" font-family="Helvetica,sans-Serif" font-size="10.00" fill="white">• Agents</text>
<text text-anchor="start" x="1577" y="-293" font-family="Helvetica,sans-Serif" font-size="10.00" fill="white">• Pipelines</text>
<text text-anchor="start" x="1577" y="-282" font-family="Helvetica,sans-Serif" font-size="10.00" fill="white">• Workflows</text>
</g>
<!-- inference&#45;&gt;agents -->
<g id="edge4" class="edge">
<title>inference&#45;&gt;agents</title>
<path fill="none" stroke="#6366f1" d="M1371.14,-395.69C1403.9,-394.84 1442.79,-390.81 1476,-379 1503.96,-369.06 1531.44,-350.34 1552.31,-333.73"/>
<polygon fill="#6366f1" stroke="#6366f1" points="1554.71,-336.29 1560.25,-327.26 1550.29,-330.86 1554.71,-336.29"/>
<text text-anchor="middle" x="1451" y="-401.6" font-family="Helvetica,sans-Serif" font-size="8.00">inference</text>
<text text-anchor="middle" x="1451" y="-392.6" font-family="Helvetica,sans-Serif" font-size="8.00">results</text>
</g>
<!-- context_store&#45;&gt;prompts -->
<g id="edge13" class="edge">
<title>context_store&#45;&gt;prompts</title>
<path fill="none" stroke="#2563eb" stroke-dasharray="5,2" d="M2145.8,-516.57C2022.1,-533.08 1789.9,-560 1591,-560 1012.5,-560 1012.5,-560 1012.5,-560 948.78,-560 876.85,-560 822.06,-560"/>
<polygon fill="#2563eb" stroke="#2563eb" points="822.03,-556.5 812.03,-560 822.03,-563.5 822.03,-556.5"/>
<text text-anchor="middle" x="1451" y="-571.6" font-family="Helvetica,sans-Serif" font-size="8.00">CONTEXT</text>
<text text-anchor="middle" x="1451" y="-562.6" font-family="Helvetica,sans-Serif" font-size="8.00">INJECTION</text>
</g>
<!-- context_store&#45;&gt;agents -->
<g id="edge12" class="edge">
<title>context_store&#45;&gt;agents</title>
<path fill="none" stroke="#2563eb" stroke-dasharray="5,2" d="M2214.3,-483.43C2185.47,-454.25 2129.12,-400.54 2073,-366 1948.73,-289.52 1772.59,-286.67 1671.24,-292.9"/>
<polygon fill="#2563eb" stroke="#2563eb" points="1670.82,-289.42 1661.07,-293.57 1671.28,-296.41 1670.82,-289.42"/>
<text text-anchor="middle" x="1900" y="-337.6" font-family="Helvetica,sans-Serif" font-size="8.00">context</text>
<text text-anchor="middle" x="1900" y="-328.6" font-family="Helvetica,sans-Serif" font-size="8.00">feed</text>
</g>
<!-- agents&#45;&gt;frontends -->
<g id="edge24" class="edge">
<title>agents&#45;&gt;frontends</title>
<path fill="none" stroke="#e85d26" stroke-dasharray="5,2" d="M1578.88,-274.81C1548.68,-201.58 1451.77,0 1300,0 426.5,0 426.5,0 426.5,0 181.21,0 123.84,-412.23 112.5,-529.32"/>
<polygon fill="#e85d26" stroke="#e85d26" points="109,-529.13 111.56,-539.41 115.97,-529.77 109,-529.13"/>
<text text-anchor="middle" x="878" y="-2.6" font-family="Helvetica,sans-Serif" font-size="8.00">OUTPUT</text>
</g>
<!-- agents&#45;&gt;inference -->
<g id="edge6" class="edge">
<title>agents&#45;&gt;inference</title>
<path fill="none" stroke="#e85d26" stroke-dasharray="5,2" d="M1518.74,-322.79C1489.97,-331.76 1456.37,-342.31 1426,-352 1411.44,-356.65 1395.95,-361.64 1380.99,-366.5"/>
<polygon fill="#e85d26" stroke="#e85d26" points="1379.68,-363.24 1371.25,-369.66 1381.85,-369.9 1379.68,-363.24"/>
<text text-anchor="middle" x="1451" y="-363.6" font-family="Helvetica,sans-Serif" font-size="8.00">AGENTIC</text>
<text text-anchor="middle" x="1451" y="-354.6" font-family="Helvetica,sans-Serif" font-size="8.00">LOOP</text>
</g>
<!-- agents&#45;&gt;context_store -->
<g id="edge14" class="edge">
<title>agents&#45;&gt;context_store</title>
<path fill="none" stroke="#2563eb" stroke-dasharray="5,2" d="M1661.16,-318.62C1755.62,-342.9 1928.55,-389.31 2073,-439 2108.26,-451.13 2147.04,-466.71 2177.7,-479.58"/>
<polygon fill="#2563eb" stroke="#2563eb" points="2176.37,-482.82 2186.94,-483.48 2179.09,-476.37 2176.37,-482.82"/>
<text text-anchor="middle" x="1900" y="-421.6" font-family="Helvetica,sans-Serif" font-size="8.00">AD&#45;HOC</text>
<text text-anchor="middle" x="1900" y="-412.6" font-family="Helvetica,sans-Serif" font-size="8.00">MEMORY</text>
</g>
<!-- mcp -->
<g id="node7" class="node">
<title>mcp</title>
<polygon fill="#f5a623" stroke="black" points="1811,-174 1811,-210 1989,-210 1989,-174 1811,-174"/>
<text text-anchor="middle" x="1830" y="-189.5" font-family="Helvetica,sans-Serif" font-size="10.00" fill="white">MCP</text>
<polyline fill="none" stroke="black" points="1849,-174 1849,-210 "/>
<text text-anchor="start" x="1857" y="-195" font-family="Helvetica,sans-Serif" font-size="10.00" fill="white">• Model Context Protocol</text>
<text text-anchor="start" x="1857" y="-184" font-family="Helvetica,sans-Serif" font-size="10.00" fill="white">• Tool Registry</text>
</g>
<!-- agents&#45;&gt;mcp -->
<g id="edge5" class="edge">
<title>agents&#45;&gt;mcp</title>
<path fill="none" stroke="#e85d26" d="M1656.22,-274.97C1671.82,-268.92 1688.46,-262.61 1704,-257 1746.52,-241.65 1794.71,-225.57 1832.54,-213.25"/>
<polygon fill="#e85d26" stroke="#e85d26" points="1834,-216.46 1842.43,-210.04 1831.83,-209.8 1834,-216.46"/>
<text text-anchor="middle" x="1736" y="-268.6" font-family="Helvetica,sans-Serif" font-size="8.00">AUTONOMOUS /</text>
<text text-anchor="middle" x="1736" y="-259.6" font-family="Helvetica,sans-Serif" font-size="8.00">DETERMINISTIC</text>
</g>
<!-- agents&#45;&gt;storage -->
<g id="edge10" class="edge">
<title>agents&#45;&gt;storage</title>
<path fill="none" stroke="#14b8a6" stroke-dasharray="5,2" d="M1613.65,-327.1C1667.13,-388.75 1801.51,-543.63 1864.9,-616.69"/>
<polygon fill="#14b8a6" stroke="#14b8a6" points="1862.34,-619.09 1871.54,-624.35 1867.63,-614.5 1862.34,-619.09"/>
<text text-anchor="middle" x="1736" y="-501.6" font-family="Helvetica,sans-Serif" font-size="8.00">persist</text>
</g>
<!-- hitl -->
<g id="node8" class="node">
<title>hitl</title>
<polygon fill="#b91c1c" stroke="black" points="2116,-226 2116,-262 2354,-262 2354,-226 2116,-226"/>
<text text-anchor="middle" x="2171.5" y="-241.5" font-family="Helvetica,sans-Serif" font-size="10.00" fill="white">Human&#45;in&#45;the&#45;Loop</text>
<polyline fill="none" stroke="black" points="2227,-226 2227,-262 "/>
<text text-anchor="start" x="2235" y="-241.5" font-family="Helvetica,sans-Serif" font-size="10.00" fill="white">• Approval Checkpoint</text>
</g>
<!-- mcp&#45;&gt;hitl -->
<g id="edge7" class="edge">
<title>mcp&#45;&gt;hitl</title>
<path fill="none" stroke="#f5a623" d="M1989.36,-205.8C2025.87,-211.5 2068.85,-218.21 2108.52,-224.41"/>
<polygon fill="#f5a623" stroke="#f5a623" points="2108.11,-227.88 2118.53,-225.97 2109.19,-220.97 2108.11,-227.88"/>
<text text-anchor="middle" x="2052.5" y="-229.6" font-family="Helvetica,sans-Serif" font-size="8.00">TAKING</text>
<text text-anchor="middle" x="2052.5" y="-220.6" font-family="Helvetica,sans-Serif" font-size="8.00">ACTIONS</text>
</g>
<!-- actions -->
<g id="node9" class="node">
<title>actions</title>
<polygon fill="#2563eb" stroke="black" points="2480,-180.5 2480,-221.5 2643,-221.5 2643,-180.5 2480,-180.5"/>
<text text-anchor="middle" x="2506.5" y="-198.5" font-family="Helvetica,sans-Serif" font-size="10.00" fill="white">Actions</text>
<polyline fill="none" stroke="black" points="2533,-180.5 2533,-221.5 "/>
<text text-anchor="start" x="2541" y="-209.5" font-family="Helvetica,sans-Serif" font-size="10.00" fill="white">• Your Data</text>
<text text-anchor="start" x="2541" y="-198.5" font-family="Helvetica,sans-Serif" font-size="10.00" fill="white">• External Services</text>
<text text-anchor="start" x="2541" y="-187.5" font-family="Helvetica,sans-Serif" font-size="10.00" fill="white">• Digital Wallets</text>
</g>
<!-- hitl&#45;&gt;actions -->
<g id="edge8" class="edge">
<title>hitl&#45;&gt;actions</title>
<path fill="none" stroke="#b91c1c" d="M2354.07,-228.35C2392.17,-223.31 2433.78,-217.79 2469.6,-213.04"/>
<polygon fill="#b91c1c" stroke="#b91c1c" points="2470.09,-216.51 2479.55,-211.73 2469.17,-209.57 2470.09,-216.51"/>
<text text-anchor="middle" x="2417" y="-233.6" font-family="Helvetica,sans-Serif" font-size="8.00">approved</text>
<text text-anchor="middle" x="2417" y="-224.6" font-family="Helvetica,sans-Serif" font-size="8.00">actions</text>
</g>
<!-- actions&#45;&gt;mcp -->
<g id="edge9" class="edge">
<title>actions&#45;&gt;mcp</title>
<path fill="none" stroke="#2563eb" stroke-dasharray="5,2" d="M2479.63,-195.69C2441.53,-193.45 2395.45,-191.1 2354,-190 2231.81,-186.75 2091.01,-188.18 1999.24,-189.81"/>
<polygon fill="#2563eb" stroke="#2563eb" points="1999.07,-186.31 1989.13,-189.99 1999.19,-193.31 1999.07,-186.31"/>
<text text-anchor="middle" x="2235" y="-201.6" font-family="Helvetica,sans-Serif" font-size="8.00">DATA</text>
<text text-anchor="middle" x="2235" y="-192.6" font-family="Helvetica,sans-Serif" font-size="8.00">RETRIEVAL</text>
</g>
<!-- storage&#45;&gt;context_store -->
<g id="edge11" class="edge">
<title>storage&#45;&gt;context_store</title>
<path fill="none" stroke="#2563eb" stroke-dasharray="5,2" d="M1970.4,-624.32C2032.51,-595.97 2122.34,-554.97 2179.44,-528.9"/>
<polygon fill="#2563eb" stroke="#2563eb" points="2181.02,-532.03 2188.66,-524.69 2178.11,-525.66 2181.02,-532.03"/>
<text text-anchor="middle" x="2052.5" y="-604.6" font-family="Helvetica,sans-Serif" font-size="8.00">CONTEXT&#45;</text>
<text text-anchor="middle" x="2052.5" y="-595.6" font-family="Helvetica,sans-Serif" font-size="8.00">MINING</text>
</g>
<!-- storage&#45;&gt;context_store -->
<g id="edge26" class="edge">
<title>storage&#45;&gt;context_store</title>
<path fill="none" stroke="#14b8a6" stroke-dasharray="5,2" d="M1974.63,-647.51C2005.89,-642.17 2042.15,-633.6 2073,-620 2123.35,-597.8 2173.54,-558.14 2204.18,-531.46"/>
<polygon fill="#14b8a6" stroke="#14b8a6" points="2206.73,-533.88 2211.91,-524.64 2202.09,-528.63 2206.73,-533.88"/>
<text text-anchor="middle" x="2052.5" y="-645.6" font-family="Helvetica,sans-Serif" font-size="8.00">postgres</text>
<text text-anchor="middle" x="2052.5" y="-636.6" font-family="Helvetica,sans-Serif" font-size="8.00">indexing</text>
</g>
<!-- destinations -->
<g id="node11" class="node">
<title>destinations</title>
<polygon fill="#7c3aed" stroke="black" points="2143,-699.5 2143,-740.5 2327,-740.5 2327,-699.5 2143,-699.5"/>
<text text-anchor="middle" x="2182" y="-717.5" font-family="Helvetica,sans-Serif" font-size="10.00" fill="white">Destinations</text>
<polyline fill="none" stroke="black" points="2221,-699.5 2221,-740.5 "/>
<text text-anchor="start" x="2229" y="-728.5" font-family="Helvetica,sans-Serif" font-size="10.00" fill="white">• Prompt Library</text>
<text text-anchor="start" x="2229" y="-717.5" font-family="Helvetica,sans-Serif" font-size="10.00" fill="white">• Wiki / KM</text>
<text text-anchor="start" x="2229" y="-706.5" font-family="Helvetica,sans-Serif" font-size="10.00" fill="white">• Data Warehouse</text>
</g>
<!-- storage&#45;&gt;destinations -->
<g id="edge16" class="edge">
<title>storage&#45;&gt;destinations</title>
<path fill="none" stroke="#7c3aed" stroke-dasharray="5,2" d="M1974.9,-670.2C2021.34,-679.13 2081.86,-690.76 2132.74,-700.54"/>
<polygon fill="#7c3aed" stroke="#7c3aed" points="2132.29,-704.02 2142.78,-702.47 2133.62,-697.14 2132.29,-704.02"/>
<text text-anchor="middle" x="2052.5" y="-699.6" font-family="Helvetica,sans-Serif" font-size="8.00">curate /</text>
<text text-anchor="middle" x="2052.5" y="-690.6" font-family="Helvetica,sans-Serif" font-size="8.00">publish</text>
</g>
<!-- safety -->
<g id="node12" class="node">
<title>safety</title>
<polygon fill="#b91c1c" stroke="black" points="344,-205.5 344,-246.5 511,-246.5 511,-205.5 344,-205.5"/>
<text text-anchor="middle" x="368" y="-223.5" font-family="Helvetica,sans-Serif" font-size="10.00" fill="white">Safety</text>
<polyline fill="none" stroke="black" points="392,-205.5 392,-246.5 "/>
<text text-anchor="start" x="400" y="-234.5" font-family="Helvetica,sans-Serif" font-size="10.00" fill="white">• Guardrails</text>
<text text-anchor="start" x="400" y="-223.5" font-family="Helvetica,sans-Serif" font-size="10.00" fill="white">• Security Harnesses</text>
<text text-anchor="start" x="400" y="-212.5" font-family="Helvetica,sans-Serif" font-size="10.00" fill="white">• Input Filtering</text>
</g>
<!-- safety&#45;&gt;prompts -->
<g id="edge18" class="edge">
<title>safety&#45;&gt;prompts</title>
<path fill="none" stroke="#b91c1c" stroke-dasharray="5,2" d="M447.26,-246.64C499.54,-304.18 646.97,-466.43 706.55,-531.99"/>
<polygon fill="#b91c1c" stroke="#b91c1c" points="704.05,-534.45 713.37,-539.5 709.23,-529.74 704.05,-534.45"/>
<text text-anchor="middle" x="582.5" y="-433.6" font-family="Helvetica,sans-Serif" font-size="8.00">input</text>
<text text-anchor="middle" x="582.5" y="-424.6" font-family="Helvetica,sans-Serif" font-size="8.00">filtering</text>
</g>
<!-- safety&#45;&gt;agents -->
<g id="edge17" class="edge">
<title>safety&#45;&gt;agents</title>
<path fill="none" stroke="#b91c1c" d="M511.26,-226C572.28,-226 657.31,-226 732,-226 732,-226 732,-226 1300,-226 1375.86,-226 1459.44,-250.51 1517.12,-271.51"/>
<polygon fill="#b91c1c" stroke="#b91c1c" points="1515.91,-274.79 1526.5,-274.98 1518.34,-268.23 1515.91,-274.79"/>
<text text-anchor="middle" x="1013.5" y="-228.6" font-family="Helvetica,sans-Serif" font-size="8.00">constraints</text>
</g>
<!-- safety&#45;&gt;mcp -->
<g id="edge19" class="edge">
<title>safety&#45;&gt;mcp</title>
<path fill="none" stroke="#b91c1c" stroke-dasharray="5,2" d="M451.3,-205.18C499.36,-163.55 616.2,-74 732,-74 732,-74 732,-74 1591,-74 1695.42,-74 1807.35,-133.87 1863.12,-168.32"/>
<polygon fill="#b91c1c" stroke="#b91c1c" points="1861.56,-171.48 1871.9,-173.82 1865.28,-165.55 1861.56,-171.48"/>
<text text-anchor="middle" x="1149" y="-85.6" font-family="Helvetica,sans-Serif" font-size="8.00">tool</text>
<text text-anchor="middle" x="1149" y="-76.6" font-family="Helvetica,sans-Serif" font-size="8.00">constraints</text>
</g>
<!-- observability&#45;&gt;prompts -->
<g id="edge22" class="edge">
<title>observability&#45;&gt;prompts</title>
<path fill="none" stroke="#065f46" stroke-dasharray="5,2" d="M507.84,-560C549.55,-560 600.79,-560 643.74,-560"/>
<polygon fill="#065f46" stroke="#065f46" points="643.91,-563.5 653.91,-560 643.91,-556.5 643.91,-563.5"/>
<text text-anchor="middle" x="582.5" y="-571.6" font-family="Helvetica,sans-Serif" font-size="8.00">PROMPT</text>
<text text-anchor="middle" x="582.5" y="-562.6" font-family="Helvetica,sans-Serif" font-size="8.00">OPTIMIZATION</text>
</g>
<!-- observability&#45;&gt;agents -->
<g id="edge20" class="edge">
<title>observability&#45;&gt;agents</title>
<path fill="none" stroke="#065f46" d="M487.83,-539.35C617.82,-494.98 938.27,-390.32 1215,-338 1315.32,-319.03 1432.73,-309.43 1508.86,-304.83"/>
<polygon fill="#065f46" stroke="#065f46" points="1509.08,-308.32 1518.86,-304.24 1508.67,-301.33 1509.08,-308.32"/>
<text text-anchor="middle" x="1013.5" y="-402.6" font-family="Helvetica,sans-Serif" font-size="8.00">monitor</text>
</g>
<!-- observability&#45;&gt;storage -->
<g id="edge21" class="edge">
<title>observability&#45;&gt;storage</title>
<path fill="none" stroke="#065f46" stroke-dasharray="5,2" d="M489.45,-580.59C496.8,-583.54 504.13,-586.7 511,-590 614.71,-639.92 616.9,-725 732,-725 732,-725 732,-725 1591,-725 1668.5,-725 1754.38,-703.94 1815.72,-685.09"/>
<polygon fill="#065f46" stroke="#065f46" points="1816.85,-688.4 1825.35,-682.09 1814.76,-681.72 1816.85,-688.4"/>
<text text-anchor="middle" x="1149" y="-736.6" font-family="Helvetica,sans-Serif" font-size="8.00">logs &amp;</text>
<text text-anchor="middle" x="1149" y="-727.6" font-family="Helvetica,sans-Serif" font-size="8.00">metrics</text>
</g>
<!-- grounding -->
<g id="node14" class="node">
<title>grounding</title>
<polygon fill="#0891b2" stroke="black" points="1215,-129.5 1215,-170.5 1383,-170.5 1383,-129.5 1215,-129.5"/>
<text text-anchor="middle" x="1248.5" y="-147.5" font-family="Helvetica,sans-Serif" font-size="10.00" fill="white">Grounding</text>
<polyline fill="none" stroke="black" points="1282,-129.5 1282,-170.5 "/>
<text text-anchor="start" x="1290" y="-158.5" font-family="Helvetica,sans-Serif" font-size="10.00" fill="white">• Web Search</text>
<text text-anchor="start" x="1290" y="-147.5" font-family="Helvetica,sans-Serif" font-size="10.00" fill="white">• News Feeds</text>
<text text-anchor="start" x="1290" y="-136.5" font-family="Helvetica,sans-Serif" font-size="10.00" fill="white">• Real&#45;Time Data</text>
</g>
<!-- grounding&#45;&gt;agents -->
<g id="edge23" class="edge">
<title>grounding&#45;&gt;agents</title>
<path fill="none" stroke="#0891b2" stroke-dasharray="5,2" d="M1383.13,-158.59C1413.69,-164.23 1447.7,-173.56 1476,-189 1511.23,-208.22 1542.86,-241.7 1563.64,-267.06"/>
<polygon fill="#0891b2" stroke="#0891b2" points="1561.01,-269.37 1569.99,-274.98 1566.46,-264.99 1561.01,-269.37"/>
<text text-anchor="middle" x="1451" y="-191.6" font-family="Helvetica,sans-Serif" font-size="8.00">GROUNDING</text>
</g>
</g>
</svg>
